<?xml version="1.0" encoding="UTF-8" standalone="no"?>
<!DOCTYPE svg PUBLIC "-//W3C//DTD SVG 1.1//EN" "http://www.w3.org/Graphics/SVG/1.1/DTD/svg11.dtd">
<svg width="100%" height="100%" viewBox="0 0 849 429" version="1.1" xmlns="http://www.w3.org/2000/svg" xmlns:xlink="http://www.w3.org/1999/xlink" xml:space="preserve" xmlns:serif="http://www.serif.com/" style="fill-rule:evenodd;clip-rule:evenodd;stroke-linejoin:round;stroke-miterlimit:2;">
    <g id="Mesa-de-trabajo2" serif:id="Mesa de trabajo2" transform="matrix(1,0,0,1,397.497975,-223.44309)">
        <rect x="-397.498" y="223.443" width="848.909" height="428.334" style="fill:none;"/>
        <g id="Capa6" transform="matrix(1.218069,0,0,1.218069,-2304.641917,-784.828923)">
            <g transform="matrix(1.285241,0,0,1.285241,1520.640939,711.686778)">
                <g transform="matrix(0.760907,0,0,0.760907,-42.661302,71.757561)">
                    <g transform="matrix(0.940234,0,0,0.925889,7.329058,-28.80775)">
                        <g transform="matrix(0.24,0,0,0.24,0,35.910173)">
                            <path d="M638.811,1137.284C638.674,1137.277 638.534,1137.265 638.405,1137.265C588.881,1132.695 581.795,1091.105 583.803,1045.237C584.92,1019.71 588.838,992.847 589.827,970.312C590.19,962.12 590.155,954.476 589.448,947.695C589.854,931.452 590.471,915.21 591.178,898.976C591.221,897.894 591.272,896.816 591.315,895.734C592.073,878.405 592.924,861.097 593.682,843.78C594.854,816.839 595.842,789.898 596.006,762.941C594.612,720.421 595.998,677.894 595.096,635.366C594.663,628.445 594.588,621.027 594.905,613.347C594.905,613.14 594.924,612.945 594.924,612.737C597.471,555.991 622.053,485.902 689.686,503.097C819.209,470.382 946.19,560.655 940.038,697.8C939.991,698.706 939.952,699.616 939.897,700.523C928.702,808.027 824.366,890.886 717.737,885.214C714.252,933.226 711.842,981.339 709.674,1029.417C709.381,1032.284 709.202,1035.187 709.073,1038.112C708.709,1046.468 708.846,1055.058 708.479,1063.511C707.881,1077.3 705.971,1090.78 698.44,1102.64C684.85,1119.632 667.026,1135.777 644.405,1137.222C643.295,1137.3 642.174,1137.335 641.049,1137.335C640.307,1137.335 639.561,1137.32 638.811,1137.284Z" style="fill:white;fill-rule:nonzero;"/>
                        </g>
                        <g transform="matrix(0.24,0,0,0.24,0,35.910173)">
                            <path d="M1038.62,607.004L1038.62,606.987C1038.37,606.143 1038.148,605.292 1037.94,604.44C1037.94,604.433 1037.921,604.421 1037.921,604.413C1037.878,604.233 1037.843,604.061 1037.792,603.89C1037.784,603.827 1037.757,603.761 1037.749,603.698C1037.726,603.561 1037.69,603.417 1037.655,603.276C1036.569,598.589 1035.96,593.8 1035.874,589.015L1035.874,588.362C1035.866,588.311 1035.866,588.284 1035.866,588.249C1035.874,588.128 1035.874,588.011 1035.874,587.897C1035.866,587.768 1035.874,587.64 1035.866,587.511C1035.866,587.425 1035.874,587.347 1035.874,587.261C1035.874,587.097 1035.882,586.94 1035.882,586.788C1035.882,586.733 1035.882,586.69 1035.874,586.64C1035.882,586.452 1035.89,586.261 1035.89,586.065C1035.898,585.944 1035.898,585.831 1035.909,585.71C1035.917,585.265 1035.952,584.8 1035.968,584.335L1035.968,584.308C1035.976,584.237 1035.976,584.171 1035.984,584.128L1035.984,584.12C1035.984,584.05 1035.995,583.999 1035.984,583.929C1035.995,583.901 1035.995,583.87 1035.984,583.827C1035.995,583.749 1035.995,583.671 1036.011,583.593L1036.011,583.585C1036.011,583.542 1036.011,583.507 1036.019,583.464C1036.026,583.386 1036.038,583.319 1036.038,583.233C1036.046,583.198 1036.046,583.147 1036.046,583.12C1036.054,583.042 1036.062,582.964 1036.073,582.897C1036.081,582.835 1036.081,582.776 1036.081,582.706C1036.097,582.655 1036.089,582.597 1036.097,582.534C1036.105,582.491 1036.105,582.433 1036.112,582.39C1036.112,582.311 1036.124,582.249 1036.132,582.198C1036.132,582.14 1036.148,582.089 1036.148,582.026C1036.148,581.968 1036.159,581.89 1036.167,581.827C1036.159,581.776 1036.167,581.718 1036.175,581.655C1036.175,581.597 1036.19,581.546 1036.19,581.483C1036.21,581.425 1036.21,581.347 1036.226,581.276C1036.226,581.233 1036.234,581.19 1036.234,581.147C1036.245,581.061 1036.253,580.975 1036.269,580.882C1036.269,580.847 1036.269,580.831 1036.276,580.804C1036.276,580.718 1036.296,580.632 1036.304,580.546L1036.304,580.538C1036.312,580.503 1036.312,580.479 1036.304,580.444C1036.319,580.347 1036.339,580.245 1036.355,580.143L1036.355,580.124C1037.069,574.565 1038.593,569.124 1040.968,563.987C1044.722,548.14 1056.558,537.569 1069.288,529.643C1069.417,529.487 1069.534,529.335 1069.675,529.179C1069.726,529.128 1069.776,529.058 1069.827,529.007C1069.905,528.913 1069.991,528.815 1070.069,528.722C1070.14,528.663 1070.198,528.585 1070.261,528.526C1070.335,528.44 1070.405,528.343 1070.484,528.265C1070.542,528.198 1070.605,528.136 1070.663,528.069C1070.741,527.983 1070.819,527.897 1070.898,527.819C1070.956,527.749 1071.015,527.69 1071.077,527.62C1071.155,527.534 1071.249,527.44 1071.327,527.354C1071.386,527.304 1071.429,527.241 1071.491,527.19C1071.585,527.089 1071.679,526.991 1071.784,526.89C1071.815,526.854 1071.859,526.804 1071.901,526.761C1072.03,526.64 1072.151,526.511 1072.273,526.39C1072.292,526.374 1072.308,526.354 1072.323,526.339C1075.921,522.757 1080.019,519.796 1084.425,517.585C1084.444,517.577 1084.46,517.569 1084.48,517.569C1084.632,517.491 1084.773,517.421 1084.925,517.354C1084.987,517.319 1085.038,517.292 1085.097,517.257C1085.175,517.233 1085.245,517.198 1085.312,517.163C1085.425,517.112 1085.538,517.061 1085.64,517.007C1085.675,516.991 1085.718,516.983 1085.753,516.956C1089.609,515.202 1093.687,514.015 1097.905,513.522L1097.913,513.522C1098.085,513.507 1098.269,513.479 1098.44,513.464L1098.484,513.464C1098.644,513.436 1098.808,513.421 1098.972,513.409C1098.999,513.409 1099.015,513.409 1099.042,513.401C1099.206,513.386 1099.37,513.378 1099.53,513.366C1099.55,513.358 1099.573,513.35 1099.593,513.35C1099.765,513.343 1099.944,513.331 1100.128,513.315C1102.234,513.073 1104.315,512.979 1106.382,513.05C1125.269,513.659 1142.663,526.862 1154.437,541.901C1161.023,551.413 1164.843,561.483 1166.339,571.554C1166.374,571.683 1166.386,571.811 1166.401,571.94C1166.417,572.034 1166.437,572.128 1166.437,572.222C1166.46,572.265 1166.452,572.308 1166.46,572.335C1166.48,572.448 1166.487,572.55 1166.495,572.655C1166.503,572.686 1166.503,572.714 1166.515,572.741C1166.53,572.843 1166.538,572.956 1166.565,573.065C1166.565,573.085 1166.573,573.093 1166.573,573.1C1166.616,573.573 1166.675,574.05 1166.73,574.522C1166.73,574.565 1166.737,574.616 1166.73,574.659C1166.745,574.737 1166.753,574.815 1166.753,574.882C1166.773,574.952 1166.773,575.003 1166.78,575.073C1166.788,575.14 1166.796,575.21 1166.796,575.28C1166.796,575.374 1166.823,575.483 1166.823,575.573C1166.831,575.616 1166.831,575.64 1166.839,575.675C1166.995,577.491 1167.081,579.323 1167.097,581.14C1167.097,581.417 1167.097,581.675 1167.109,581.925C1167.081,582.542 1167.081,583.163 1167.054,583.792C1166.487,601.909 1158.843,619.245 1146.749,632.276C1146.749,632.276 1146.741,632.276 1146.741,632.284C1146.675,632.37 1146.597,632.456 1146.519,632.534L1146.448,632.604C1146.398,632.663 1146.319,632.749 1146.253,632.827C1146.226,632.843 1146.198,632.878 1146.175,632.893C1146.105,632.972 1146.046,633.042 1145.984,633.093C1145.933,633.143 1145.909,633.179 1145.882,633.206C1145.812,633.284 1145.761,633.343 1145.702,633.386C1145.659,633.436 1145.624,633.479 1145.573,633.522C1145.519,633.577 1145.468,633.636 1145.409,633.694C1145.374,633.737 1145.312,633.792 1145.269,633.843C1145.218,633.886 1145.175,633.929 1145.124,633.987C1144.937,634.179 1144.73,634.386 1144.523,634.581C1144.523,634.581 1144.515,634.593 1144.515,634.6C1144.429,634.694 1144.323,634.788 1144.222,634.882C1144.21,634.901 1144.194,634.917 1144.187,634.936C1144.093,635.022 1143.995,635.089 1143.909,635.175C1143.894,635.194 1143.866,635.21 1143.859,635.237C1143.765,635.323 1143.679,635.401 1143.593,635.487C1143.573,635.503 1143.565,635.522 1143.558,635.53C1143.456,635.624 1143.37,635.718 1143.273,635.804C1143.265,635.804 1143.265,635.811 1143.257,635.811C1143.144,635.917 1143.05,636.018 1142.937,636.124C1142.62,636.39 1142.319,636.683 1142.007,636.956C1132.401,645.659 1120.593,651.815 1107.612,654.12C1107.589,654.128 1107.569,654.136 1107.554,654.136C1107.425,654.163 1107.304,654.19 1107.183,654.198C1107.148,654.206 1107.132,654.214 1107.097,654.214C1106.987,654.233 1106.866,654.257 1106.745,654.276C1106.73,654.276 1106.694,654.284 1106.659,654.284C1106.546,654.3 1106.437,654.319 1106.323,654.327C1106.288,654.343 1106.245,654.354 1106.222,654.354C1106.109,654.37 1105.987,654.397 1105.866,654.397L1105.788,654.421C1105.636,654.448 1105.507,654.464 1105.366,654.491C1103.8,654.714 1102.21,654.87 1100.609,654.972C1099.206,655.065 1097.796,655.112 1096.374,655.112C1095.667,655.112 1094.952,655.1 1094.237,655.077C1093.249,655.042 1092.261,654.999 1091.269,654.913C1089.937,654.808 1088.609,654.663 1087.276,654.483C1087.12,654.456 1086.964,654.429 1086.804,654.405C1086.769,654.413 1086.726,654.405 1086.69,654.397C1086.534,654.37 1086.37,654.354 1086.218,654.327C1086.198,654.327 1086.175,654.319 1086.155,654.311C1086.019,654.292 1085.874,654.268 1085.726,654.241C1085.69,654.241 1085.655,654.241 1085.624,654.225C1085.476,654.198 1085.323,654.171 1085.159,654.147C1085.124,654.147 1085.105,654.128 1085.073,654.128C1084.933,654.104 1084.804,654.077 1084.675,654.054C1084.632,654.042 1084.597,654.042 1084.565,654.026C1084.409,653.999 1084.273,653.964 1084.109,653.933C1084.073,653.94 1084.03,653.921 1083.995,653.913C1083.866,653.89 1083.737,653.854 1083.609,653.835C1083.581,653.819 1083.538,653.819 1083.507,653.819C1083.366,653.776 1083.214,653.741 1083.073,653.718C1083.023,653.698 1082.98,653.698 1082.944,653.683C1082.808,653.655 1082.671,653.612 1082.534,653.585C1082.499,653.569 1082.48,653.569 1082.456,653.569C1082.319,653.534 1082.179,653.499 1082.034,653.456C1081.991,653.448 1081.94,653.433 1081.886,653.413C1081.749,653.39 1081.612,653.347 1081.464,653.311C1081.433,653.296 1081.39,653.284 1081.355,653.276C1081.234,653.253 1081.12,653.206 1081.011,653.183C1080.956,653.175 1080.905,653.155 1080.855,653.14C1080.718,653.097 1080.577,653.061 1080.44,653.011C1080.398,653.011 1080.355,652.991 1080.296,652.983C1080.19,652.94 1080.089,652.905 1079.984,652.882C1079.933,652.862 1079.882,652.854 1079.831,652.839C1079.702,652.796 1079.562,652.745 1079.425,652.71C1079.374,652.683 1079.323,652.683 1079.273,652.659C1079.167,652.624 1079.046,652.589 1078.937,652.561C1078.909,652.538 1078.866,652.526 1078.831,652.511C1078.679,652.468 1078.546,652.417 1078.417,652.374C1078.359,652.354 1078.308,652.331 1078.257,652.323C1078.151,652.28 1078.03,652.237 1077.929,652.202C1077.878,652.183 1077.823,652.167 1077.773,652.14C1077.644,652.108 1077.523,652.065 1077.413,652.011C1077.351,651.995 1077.292,651.975 1077.241,651.96C1077.128,651.909 1076.999,651.866 1076.87,651.815C1076.827,651.796 1076.784,651.772 1076.734,651.761C1076.62,651.725 1076.526,651.686 1076.421,651.632C1076.355,651.624 1076.3,651.589 1076.241,651.565C1076.112,651.522 1075.984,651.468 1075.862,651.417C1075.812,651.401 1075.749,651.374 1075.698,651.35C1075.612,651.315 1075.519,651.272 1075.413,651.229C1075.362,651.218 1075.312,651.186 1075.261,651.167C1075.12,651.116 1075.003,651.065 1074.874,650.995C1074.819,650.987 1074.769,650.952 1074.718,650.936C1074.632,650.893 1074.519,650.85 1074.433,650.815C1074.382,650.788 1074.331,650.765 1074.28,650.745C1074.151,650.686 1074.03,650.636 1073.909,650.573C1073.847,650.55 1073.788,650.515 1073.73,650.487C1073.644,650.452 1073.546,650.401 1073.452,650.366C1073.382,650.335 1073.323,650.308 1073.253,650.265C1073.151,650.222 1073.038,650.171 1072.929,650.116C1072.874,650.093 1072.815,650.065 1072.765,650.042C1072.659,649.987 1072.565,649.929 1072.472,649.886C1072.394,649.858 1072.315,649.815 1072.249,649.784C1072.151,649.729 1072.065,649.686 1071.98,649.655C1071.921,649.608 1071.859,649.593 1071.8,649.558C1071.687,649.499 1071.585,649.436 1071.472,649.378C1071.405,649.35 1071.343,649.319 1071.276,649.284C1071.203,649.244 1070.62,648.929 1070.491,648.862C1070.44,648.835 1070.378,648.792 1070.319,648.768C1070.241,648.725 1070.155,648.683 1070.085,648.64C1070.019,648.604 1069.968,648.569 1069.913,648.542C1069.796,648.475 1069.683,648.405 1069.554,648.335C1069.503,648.304 1069.44,648.268 1069.382,648.233C1069.304,648.183 1069.226,648.14 1069.14,648.085C1069.081,648.061 1069.003,648.018 1068.933,647.975C1068.831,647.913 1068.726,647.847 1068.632,647.796C1068.573,647.761 1068.523,647.718 1068.46,647.69C1068.374,647.632 1068.273,647.577 1068.187,647.518C1068.116,647.475 1068.054,647.433 1067.987,647.405C1067.894,647.339 1067.808,647.276 1067.71,647.218C1067.651,647.19 1067.601,647.159 1067.546,647.124C1067.437,647.054 1067.343,646.983 1067.23,646.917C1067.167,646.882 1067.116,646.839 1067.038,646.804C1066.972,646.745 1066.878,646.69 1066.808,646.64C1066.749,646.608 1066.687,646.561 1066.628,646.53C1066.523,646.46 1066.401,646.374 1066.292,646.304C1066.241,646.272 1066.187,646.229 1066.136,646.194C1066.058,646.14 1065.98,646.1 1065.894,646.038C1065.843,646.011 1065.8,645.968 1065.734,645.925C1065.628,645.85 1065.515,645.772 1065.405,645.702C1065.343,645.651 1065.292,645.624 1065.241,645.581C1065.163,645.522 1065.077,645.472 1064.999,645.417C1064.94,645.374 1064.89,645.331 1064.827,645.28C1064.718,645.214 1064.612,645.143 1064.519,645.065C1064.468,645.022 1064.405,644.987 1064.355,644.944C1064.269,644.886 1064.183,644.815 1064.089,644.749C1064.034,644.714 1063.984,644.671 1063.917,644.628C1063.831,644.55 1063.734,644.479 1063.64,644.413C1063.581,644.378 1063.538,644.335 1063.495,644.308C1063.39,644.214 1063.296,644.143 1063.183,644.069C1063.132,644.022 1063.062,643.991 1063.019,643.936C1062.933,643.878 1062.847,643.819 1062.773,643.749C1062.73,643.706 1062.675,643.679 1062.624,643.628C1062.511,643.55 1062.394,643.456 1062.288,643.362C1062.245,643.335 1062.194,643.292 1062.159,643.257C1062.073,643.19 1061.987,643.128 1061.909,643.05C1061.859,643.026 1061.823,642.991 1061.773,642.948C1061.659,642.854 1061.55,642.768 1061.437,642.675C1061.401,642.64 1061.359,642.604 1061.315,642.561C1061.23,642.483 1061.128,642.413 1061.05,642.347C1061.007,642.311 1060.972,642.284 1060.937,642.253C1060.815,642.155 1060.698,642.061 1060.601,641.968C1060.55,641.925 1060.515,641.897 1060.48,641.862C1060.378,641.768 1060.284,641.683 1060.19,641.604C1060.155,641.581 1060.12,641.546 1060.093,641.53C1059.984,641.425 1059.878,641.331 1059.769,641.225C1059.722,641.202 1059.698,641.167 1059.655,641.132C1059.534,641.03 1059.421,640.925 1059.312,640.815C1059.292,640.796 1059.269,640.78 1059.234,640.772C1059.14,640.659 1059.034,640.573 1058.94,640.479C1058.905,640.452 1058.87,640.417 1058.847,640.393C1058.734,640.28 1058.612,640.179 1058.491,640.065C1058.468,640.05 1058.46,640.022 1058.433,640.003C1058.331,639.901 1058.218,639.808 1058.112,639.714C1058.097,639.686 1058.069,639.659 1058.046,639.636C1057.925,639.522 1057.804,639.409 1057.683,639.292C1057.667,639.272 1057.64,639.257 1057.632,639.237C1057.519,639.12 1057.401,639.015 1057.288,638.913C1057.28,638.893 1057.273,638.886 1057.261,638.878L1056.882,638.499C1056.874,638.491 1056.859,638.472 1056.851,638.456C1056.589,638.206 1056.343,637.94 1056.101,637.69L1056.065,637.655C1055.815,637.397 1055.565,637.14 1055.315,636.862L1055.3,636.847C1051.03,632.225 1047.312,626.929 1044.315,621.225C1041.948,616.706 1040.03,611.929 1038.628,607.015C1038.626,607.015 1038.625,607.014 1038.624,607.014C1038.62,607.014 1038.62,607.016 1038.62,607.022L1038.62,607.014C1038.616,607.014 1038.616,607.015 1038.616,607.022L1038.616,607.014C1038.618,607.011 1038.619,607.008 1038.62,607.004ZM1112.641,1106.9C1112.626,1106.9 1112.61,1106.899 1112.595,1106.898C1112.536,1106.898 1112.466,1106.898 1112.404,1106.886C1112.318,1106.886 1112.243,1106.886 1112.158,1106.878C1112.122,1106.871 1112.087,1106.878 1112.052,1106.871C1111.95,1106.871 1111.837,1106.871 1111.724,1106.863C1111.587,1106.843 1111.45,1106.843 1111.314,1106.835L1111.302,1106.843C1103.341,1106.347 1094.329,1103.617 1084.115,1098.23C1083.4,1097.851 1082.677,1097.464 1081.943,1097.058C1029.294,1065.425 1025.661,995.39 1026.626,937.664C1026.591,936.972 1026.556,936.285 1026.513,935.613C1026.505,935.546 1026.513,935.476 1026.505,935.406C1026.47,934.777 1026.447,934.152 1026.411,933.523C1026.404,933.472 1026.396,933.41 1026.404,933.359C1025.853,922.203 1025.638,911.039 1025.661,899.886C1025.669,899.781 1025.681,899.679 1025.669,899.574C1025.669,899.058 1025.681,898.535 1025.669,898.019C1025.669,897.785 1025.689,897.562 1025.681,897.328C1025.689,896.984 1025.689,896.648 1025.689,896.32C1025.697,895.945 1025.697,895.554 1025.697,895.175C1025.704,895.152 1025.704,895.124 1025.689,895.089C1025.74,890.382 1025.818,885.683 1025.939,880.984C1025.939,880.914 1025.927,880.863 1025.939,880.796C1025.939,880.664 1025.939,880.546 1025.947,880.406C1025.947,880.312 1025.954,880.226 1025.954,880.132C1025.947,880.046 1025.954,879.953 1025.954,879.855C1025.962,879.589 1025.974,879.304 1025.99,879.023C1025.99,878.816 1025.997,878.609 1025.99,878.41C1025.997,878.136 1026.005,877.859 1026.025,877.593L1026.025,877.585C1026.083,875.148 1026.161,872.722 1026.247,870.285C1026.892,850.464 1028.005,830.64 1028.993,810.871C1029.474,803.933 1030.001,796.859 1030.767,789.773C1032.197,776.535 1034.466,763.331 1038.857,751.214C1044.806,735.98 1051.115,719.246 1062.915,708.167C1064.482,706.706 1066.142,705.328 1067.908,704.081C1076.79,699.027 1085.404,696.285 1093.591,695.593L1093.591,695.585L1093.599,695.585L1093.599,695.593L1093.607,695.601C1095.302,695.456 1096.99,695.406 1098.661,695.421C1098.892,695.429 1099.134,695.437 1099.365,695.437C1101.939,695.527 1104.462,695.808 1106.931,696.3C1123.072,699.46 1136.911,710.999 1146.939,728.371L1146.939,728.378L1146.947,728.378C1148.743,731.476 1150.388,734.73 1151.919,738.164C1160.056,756.085 1162.353,775.917 1164.314,795.636C1164.95,802.003 1165.544,808.347 1166.294,814.624C1166.365,815.035 1166.415,815.449 1166.466,815.871C1166.474,815.949 1166.486,816.035 1166.509,816.113C1166.544,816.48 1166.595,816.851 1166.65,817.23C1166.665,817.351 1166.673,817.48 1166.7,817.601C1166.736,817.945 1166.775,818.281 1166.81,818.624C1166.845,818.789 1166.865,818.945 1166.88,819.105C1166.915,819.417 1166.958,819.734 1166.993,820.062C1167.009,820.234 1167.036,820.414 1167.052,820.597C1167.087,820.82 1167.103,821.042 1167.13,821.277C1167.154,821.55 1167.2,821.808 1167.224,822.078C1167.243,822.257 1167.259,822.449 1167.275,822.628C1167.329,822.953 1167.353,823.289 1167.388,823.609C1167.415,823.753 1167.423,823.894 1167.431,824.039C1167.482,824.433 1167.517,824.839 1167.56,825.246C1167.568,825.331 1167.579,825.417 1167.587,825.492C1167.665,826.242 1167.732,826.999 1167.81,827.765C1167.802,827.792 1167.81,827.816 1167.81,827.835C1167.853,828.308 1167.896,828.8 1167.947,829.273C1167.939,829.316 1167.954,829.359 1167.954,829.41C1167.997,829.89 1168.033,830.374 1168.075,830.839C1168.083,830.855 1168.075,830.882 1168.075,830.898C1168.474,835.531 1168.767,840.144 1169.005,844.773C1169.013,844.843 1169.013,844.91 1169.013,844.98C1169.04,845.417 1169.068,845.839 1169.083,846.261C1169.086,846.293 1169.087,846.324 1169.089,846.355C1169.091,846.42 1169.091,846.485 1169.091,846.554C1169.111,846.917 1169.126,847.277 1169.142,847.64C1169.154,847.804 1169.169,847.956 1169.169,848.121C1169.177,848.328 1169.189,848.527 1169.197,848.726C1169.22,849.035 1169.22,849.343 1169.24,849.656L1169.263,850.171C1169.263,850.488 1169.29,850.816 1169.298,851.144C1169.298,851.289 1169.306,851.437 1169.325,851.589C1169.333,851.953 1169.349,852.312 1169.368,852.675C1169.361,852.746 1169.368,852.812 1169.361,852.874C1169.439,854.886 1169.497,856.91 1169.556,858.933C1169.825,867.753 1169.962,876.593 1170.142,885.433C1170.142,885.468 1170.15,885.503 1170.15,885.539C1170.142,885.57 1170.142,885.597 1170.15,885.632C1170.29,892.121 1170.443,898.621 1170.712,905.109L1170.712,905.111L1170.714,905.111C1170.714,905.113 1170.713,905.115 1170.713,905.117C1170.713,905.136 1170.7,905.16 1170.712,905.179C1170.712,905.18 1170.712,905.182 1170.712,905.183C1170.713,905.187 1170.713,905.19 1170.714,905.193C1170.715,905.196 1170.717,905.199 1170.72,905.203L1170.72,905.238C1170.712,905.249 1170.712,905.249 1170.712,905.257L1170.712,905.289C1170.743,906.089 1170.779,906.874 1170.822,907.675C1170.915,909.828 1171.021,911.98 1171.15,914.121C1171.228,928.425 1171.638,949.523 1170.908,972.554C1170.9,972.746 1170.892,972.917 1170.892,973.097C1170.271,991.456 1168.919,1011.039 1166.087,1029.406C1166.036,1029.691 1165.986,1029.976 1165.943,1030.265C1165.892,1030.585 1165.837,1030.929 1165.779,1031.249C1165.771,1031.335 1165.763,1031.429 1165.743,1031.507L1165.615,1032.273C1165.599,1032.374 1165.579,1032.46 1165.564,1032.566C1165.556,1032.71 1165.521,1032.847 1165.501,1032.988C1165.458,1033.246 1165.415,1033.519 1165.372,1033.789L1165.357,1033.804C1165.279,1034.328 1165.177,1034.835 1165.091,1035.355C1164.986,1035.921 1164.884,1036.499 1164.771,1037.066C1164.661,1037.644 1164.556,1038.21 1164.462,1038.781L1164.462,1038.789C1163.025,1046.363 1161.294,1053.636 1159.22,1060.425C1159.204,1060.46 1159.193,1060.503 1159.185,1060.539C1159.142,1060.64 1159.107,1060.761 1159.075,1060.882C1159.048,1060.941 1159.029,1061.003 1159.013,1061.062C1158.986,1061.148 1158.97,1061.246 1158.935,1061.347C1155.915,1071.003 1152.161,1079.648 1147.521,1086.757C1147.505,1086.789 1147.49,1086.816 1147.47,1086.831C1147.411,1086.937 1147.361,1087.015 1147.298,1087.101C1147.283,1087.132 1147.255,1087.167 1147.232,1087.203C1147.177,1087.289 1147.118,1087.374 1147.056,1087.46C1147.04,1087.496 1147.025,1087.523 1146.997,1087.554C1146.927,1087.644 1146.868,1087.746 1146.81,1087.831C1146.798,1087.847 1146.783,1087.882 1146.767,1087.89C1146.712,1087.988 1146.654,1088.081 1146.583,1088.167C1146.56,1088.195 1146.54,1088.226 1146.525,1088.269C1146.447,1088.367 1146.368,1088.468 1146.302,1088.562C1146.29,1088.57 1146.29,1088.581 1146.283,1088.589C1146.118,1088.831 1145.966,1089.054 1145.783,1089.277C1145.783,1089.304 1145.767,1089.328 1145.759,1089.347C1145.689,1089.425 1145.63,1089.519 1145.568,1089.605C1145.525,1089.648 1145.493,1089.699 1145.458,1089.742C1145.415,1089.804 1145.372,1089.871 1145.318,1089.933C1145.286,1089.976 1145.251,1090.035 1145.216,1090.078C1145.173,1090.136 1145.122,1090.206 1145.068,1090.269C1145.044,1090.312 1145.001,1090.343 1144.966,1090.398C1144.923,1090.456 1144.865,1090.535 1144.829,1090.593C1144.786,1090.636 1144.759,1090.679 1144.716,1090.734L1144.587,1090.886C1144.552,1090.949 1144.509,1090.999 1144.466,1091.05C1144.423,1091.101 1144.372,1091.164 1144.337,1091.222C1144.294,1091.273 1144.259,1091.316 1144.228,1091.371C1144.193,1091.402 1144.165,1091.437 1144.142,1091.464C1144.122,1091.472 1144.115,1091.488 1144.115,1091.507C1144.087,1091.531 1144.079,1091.542 1144.072,1091.55C1144.036,1091.593 1144.001,1091.636 1143.978,1091.671C1143.9,1091.773 1143.794,1091.886 1143.72,1091.98C1143.7,1092.015 1143.685,1092.031 1143.677,1092.05C1143.564,1092.195 1143.45,1092.324 1143.329,1092.453C1143.298,1092.515 1143.243,1092.558 1143.2,1092.609C1143.15,1092.679 1143.099,1092.738 1143.029,1092.816C1142.943,1092.917 1142.857,1093.031 1142.763,1093.124C1142.72,1093.175 1142.677,1093.218 1142.626,1093.281C1142.521,1093.41 1142.419,1093.519 1142.314,1093.632C1142.29,1093.66 1142.263,1093.695 1142.255,1093.71C1137.107,1099.468 1131.083,1103.601 1123.997,1105.589C1123.99,1105.597 1123.99,1105.597 1123.99,1105.589L1123.982,1105.578C1123.974,1105.578 1123.974,1105.578 1123.974,1105.589C1123.595,1105.691 1123.232,1105.777 1122.865,1105.871C1121.923,1106.105 1120.97,1106.292 1120.005,1106.456C1118.861,1106.64 1117.689,1106.777 1116.486,1106.855C1115.611,1106.906 1114.724,1106.933 1113.818,1106.933C1113.689,1106.933 1113.56,1106.933 1113.431,1106.929C1113.166,1106.922 1112.911,1106.915 1112.653,1106.901C1112.651,1106.901 1112.649,1106.902 1112.648,1106.902L1112.632,1106.902C1112.635,1106.901 1112.638,1106.901 1112.641,1106.9ZM1038.441,607.432C1038.456,607.389 1038.472,607.354 1038.499,607.303C1038.515,607.24 1038.542,607.19 1038.558,607.147C1038.577,607.104 1038.593,607.069 1038.62,607.026C1038.601,607.069 1038.585,607.112 1038.57,607.155C1038.57,607.162 1038.558,607.17 1038.55,607.19C1038.534,607.225 1038.515,607.26 1038.507,607.311C1038.472,607.369 1038.448,607.432 1038.421,607.49L1038.398,607.533C1038.413,607.498 1038.429,607.463 1038.441,607.432Z" style="fill:white;"/>
                        </g>
                        <g transform="matrix(0.24,0,0,0.24,0,35.910173)">
                            <path d="M1302.265,708.996C1301.56,707.413 1300.888,705.822 1300.236,704.224C1300.209,704.154 1300.193,704.103 1300.166,704.041C1300.13,703.966 1300.095,703.896 1300.072,703.81C1298.962,701.115 1297.892,698.396 1296.834,695.67C1295.216,691.502 1293.634,687.31 1291.962,683.154C1289.423,678.033 1287.142,672.806 1285.181,667.47C1283.986,664.252 1282.908,660.998 1281.943,657.701C1281.091,654.791 1280.334,651.857 1279.681,648.896C1274.947,622.068 1273.337,592.759 1283.9,567.127C1294.673,537.767 1322.716,520.978 1349.056,507.111C1355.982,503.658 1363.169,500.56 1370.537,497.834C1433.224,474.619 1509.466,477.982 1563.63,518.361C1579.572,531.47 1590.287,549.244 1600.521,566.877C1609.224,578.798 1615.919,591.752 1620.97,605.369C1622.498,609.474 1623.865,613.634 1625.095,617.841C1627.15,624.865 1628.814,632.025 1630.13,639.283C1630.201,639.556 1630.275,639.834 1630.345,640.099C1630.353,640.162 1630.373,640.212 1630.38,640.271C1630.447,640.521 1630.502,640.779 1630.576,641.037C1630.587,641.099 1630.603,641.166 1630.611,641.228C1630.681,641.478 1630.74,641.709 1630.794,641.951C1630.802,641.994 1630.818,642.037 1630.826,642.087C1630.888,642.31 1630.939,642.552 1630.998,642.787C1631.009,642.873 1631.033,642.974 1631.06,643.052C1631.111,643.295 1631.154,643.517 1631.205,643.759C1631.232,643.834 1631.248,643.92 1631.259,644.009C1631.31,644.205 1631.345,644.396 1631.396,644.591C1631.423,644.697 1631.431,644.783 1631.462,644.884C1631.498,645.091 1631.552,645.298 1631.584,645.486C1631.595,645.591 1631.619,645.685 1631.646,645.791C1631.689,646.005 1631.74,646.236 1631.783,646.443C1631.81,646.556 1631.826,646.666 1631.853,646.771C1631.877,646.935 1631.904,647.087 1631.939,647.244C1631.962,647.388 1631.99,647.545 1632.013,647.681C1632.048,647.837 1632.084,648.017 1632.111,648.181C1632.127,648.302 1632.154,648.416 1632.169,648.533C1632.212,648.732 1632.255,648.947 1632.291,649.138C1632.318,649.267 1632.334,649.396 1632.349,649.533C1632.377,649.654 1632.404,649.767 1632.419,649.877C1632.455,650.084 1632.49,650.291 1632.521,650.505C1632.541,650.619 1632.556,650.728 1632.584,650.849C1632.611,650.986 1632.619,651.127 1632.642,651.271C1632.669,651.384 1632.677,651.494 1632.705,651.591C1632.728,651.814 1632.771,652.045 1632.806,652.271C1632.826,652.357 1632.834,652.435 1632.841,652.521C1632.884,652.802 1632.919,653.06 1632.97,653.345C1632.97,653.396 1632.978,653.451 1632.986,653.494C1633.056,654.002 1633.127,654.498 1633.193,654.998C1633.193,655.048 1633.205,655.103 1633.22,655.154C1633.255,655.482 1633.298,655.798 1633.334,656.119C1633.341,656.134 1633.334,656.154 1633.341,656.162C1633.357,656.334 1633.377,656.513 1633.392,656.685L1633.412,656.705C1633.435,657.056 1633.478,657.384 1633.513,657.728C1633.513,657.744 1633.521,657.771 1633.521,657.787C1637.017,690.572 1626.826,720.482 1608.81,746.603L1608.802,746.623C1608.63,746.88 1608.447,747.146 1608.267,747.388C1608.244,747.423 1608.209,747.474 1608.189,747.509C1608.037,747.716 1607.88,747.947 1607.736,748.162C1607.701,748.212 1607.65,748.267 1607.623,748.326C1607.529,748.439 1607.459,748.548 1607.373,748.662C1607.322,748.74 1607.259,748.818 1607.216,748.896C1607.087,749.068 1606.97,749.24 1606.837,749.412C1606.771,749.505 1606.701,749.599 1606.642,749.693C1606.572,749.779 1606.494,749.884 1606.435,749.978C1606.322,750.134 1606.201,750.298 1606.091,750.451C1606.021,750.548 1605.951,750.634 1605.892,750.72C1605.779,750.873 1605.677,751.013 1605.576,751.158C1605.513,751.236 1605.47,751.306 1605.4,751.388C1605.291,751.529 1605.185,751.693 1605.076,751.83C1605.021,751.896 1604.97,751.966 1604.919,752.045C1604.783,752.224 1604.654,752.408 1604.513,752.58C1604.474,752.638 1604.431,752.689 1604.377,752.759C1604.24,752.939 1604.095,753.146 1603.947,753.345C1603.947,753.345 1603.939,753.353 1603.931,753.353C1603.775,753.56 1603.611,753.767 1603.466,753.962L1603.388,754.068C1603.224,754.283 1603.08,754.482 1602.916,754.677C1602.888,754.712 1602.861,754.74 1602.845,754.763C1602.502,755.205 1602.173,755.642 1601.822,756.08C1597.474,761.607 1592.783,766.935 1587.826,772.064L1587.826,772.072C1587.462,772.435 1587.111,772.795 1586.759,773.166C1586.74,773.173 1586.724,773.193 1586.709,773.209C1586.373,773.564 1586.029,773.908 1585.681,774.252C1585.65,774.287 1585.615,774.33 1585.572,774.361C1585.252,774.689 1584.923,775.009 1584.599,775.334C1584.556,775.38 1584.513,775.423 1584.47,775.462C1584.15,775.783 1583.834,776.091 1583.513,776.412C1583.443,776.482 1583.377,776.548 1583.306,776.611C1583.005,776.904 1582.712,777.193 1582.412,777.478C1582.345,777.556 1582.267,777.627 1582.189,777.693C1581.896,777.978 1581.611,778.263 1581.318,778.537C1581.197,778.65 1581.08,778.759 1580.966,778.873C1580.709,779.115 1580.459,779.357 1580.209,779.595C1580.072,779.724 1579.935,779.853 1579.794,779.982C1579.556,780.209 1579.322,780.423 1579.08,780.646C1578.935,780.791 1578.779,780.931 1578.627,781.068C1578.408,781.275 1578.185,781.482 1577.962,781.689C1577.791,781.849 1577.619,782.005 1577.447,782.17C1577.24,782.349 1577.033,782.541 1576.826,782.728C1576.646,782.892 1576.466,783.056 1576.283,783.22C1576.087,783.4 1575.888,783.58 1575.689,783.763C1575.494,783.935 1575.294,784.115 1575.087,784.295L1574.544,784.787C1574.33,784.974 1574.115,785.158 1573.9,785.345C1573.728,785.502 1573.564,785.654 1573.384,785.802C1573.158,786.002 1572.935,786.197 1572.712,786.396C1572.548,786.533 1572.384,786.681 1572.228,786.818C1571.99,787.025 1571.748,787.232 1571.505,787.439C1571.361,787.568 1571.205,787.697 1571.06,787.826C1570.81,788.041 1570.552,788.255 1570.294,788.478C1570.154,788.591 1570.025,788.712 1569.888,788.822C1569.623,789.048 1569.353,789.271 1569.087,789.494C1568.966,789.599 1568.837,789.709 1568.709,789.814C1568.435,790.045 1568.158,790.279 1567.884,790.502C1567.763,790.603 1567.642,790.709 1567.521,790.802C1567.236,791.045 1566.955,791.275 1566.662,791.509C1566.548,791.603 1566.447,791.697 1566.334,791.783C1566.033,792.025 1565.74,792.275 1565.439,792.517C1565.334,792.591 1565.232,792.677 1565.138,792.755L1564.189,793.521C1564.103,793.591 1564.017,793.662 1563.931,793.728C1563.623,793.978 1563.306,794.228 1562.994,794.478C1562.9,794.548 1562.814,794.615 1562.72,794.693L1561.763,795.443C1561.677,795.509 1561.591,795.58 1561.505,795.65C1561.197,795.888 1560.877,796.138 1560.568,796.38C1560.462,796.459 1560.377,796.525 1560.283,796.603C1559.966,796.845 1559.654,797.087 1559.337,797.326C1559.24,797.404 1559.146,797.474 1559.052,797.552C1558.744,797.791 1558.423,798.025 1558.107,798.263C1558.009,798.341 1557.916,798.412 1557.822,798.49C1557.502,798.728 1557.185,798.97 1556.865,799.212C1556.771,799.279 1556.677,799.349 1556.584,799.42C1556.271,799.65 1555.955,799.892 1555.634,800.123C1555.541,800.193 1555.439,800.271 1555.341,800.337C1555.025,800.58 1554.712,800.802 1554.396,801.037C1554.291,801.115 1554.189,801.193 1554.095,801.259C1553.783,801.486 1553.474,801.709 1553.173,801.931C1553.06,802.017 1552.951,802.095 1552.837,802.181L1551.908,802.853C1551.794,802.931 1551.693,803.009 1551.58,803.084C1551.291,803.291 1550.986,803.505 1550.693,803.712C1550.564,803.806 1550.435,803.904 1550.306,803.99C1550.033,804.185 1549.748,804.384 1549.462,804.584C1549.326,804.685 1549.181,804.791 1549.041,804.884C1548.775,805.072 1548.509,805.263 1548.24,805.443C1548.08,805.556 1547.923,805.666 1547.767,805.779C1547.502,805.959 1547.244,806.142 1546.986,806.322C1546.814,806.435 1546.65,806.545 1546.486,806.658C1546.244,806.83 1546.005,806.994 1545.763,807.158L1545.193,807.545C1544.978,807.689 1544.755,807.845 1544.533,807.99C1544.326,808.13 1544.111,808.275 1543.904,808.412C1543.705,808.552 1543.498,808.689 1543.302,808.818C1543.068,808.974 1542.845,809.127 1542.611,809.283C1542.423,809.404 1542.224,809.533 1542.037,809.662C1541.794,809.814 1541.552,809.978 1541.322,810.134C1541.15,810.248 1540.978,810.357 1540.814,810.47C1540.548,810.642 1540.279,810.822 1540.013,810.994C1539.869,811.091 1539.72,811.177 1539.584,811.271C1539.291,811.459 1538.998,811.65 1538.705,811.837C1538.584,811.916 1538.474,811.994 1538.361,812.064C1538.033,812.267 1537.705,812.474 1537.388,812.689C1537.302,812.744 1537.216,812.795 1537.13,812.853C1536.767,813.08 1536.416,813.302 1536.064,813.525C1536.009,813.56 1535.966,813.587 1535.923,813.611C1535.529,813.861 1535.134,814.111 1534.736,814.361L1534.685,814.384C1532.156,815.97 1529.617,817.511 1527.062,819.015C1527.01,819.05 1526.958,819.084 1526.906,819.119C1526.898,819.119 1526.886,819.119 1526.878,819.127C1526.87,819.146 1526.863,819.146 1526.855,819.146C1526.717,819.236 1526.58,819.326 1526.443,819.416C1525.844,819.808 1525.242,820.202 1524.632,820.599C1511.394,829.103 1496.331,836.599 1479.437,842.869C1477.741,843.494 1476.019,844.107 1474.273,844.717L1474.265,844.717C1499.413,913.904 1525.245,982.873 1549.027,1052.529L1549.034,1052.537C1549.859,1054.525 1550.644,1056.513 1551.382,1058.521C1552.632,1061.884 1553.761,1065.295 1554.741,1068.701C1564.734,1103.232 1560.448,1138.556 1522.851,1152.482C1521.113,1153.131 1519.296,1153.732 1517.409,1154.283C1516.851,1154.447 1516.284,1154.603 1515.714,1154.756C1511.648,1155.67 1507.593,1156.107 1503.609,1156.107C1479.48,1156.107 1457.769,1140.123 1449.406,1117.556C1448.917,1116.232 1448.468,1114.881 1448.073,1113.509C1447.058,1109.998 1446.366,1106.369 1446.015,1102.615C1418.507,1018.791 1386.331,936.47 1356.491,853.412C1351.355,836.06 1344.175,817.166 1336.323,797.447C1336.249,797.232 1336.152,796.998 1336.066,796.783C1336.058,796.767 1336.05,796.76 1336.042,796.752C1335.902,796.381 1335.765,796.017 1335.62,795.646C1335.601,795.638 1335.601,795.631 1335.593,795.603C1326.667,773.236 1316.925,749.822 1308.378,726.404C1308.37,726.369 1308.351,726.326 1308.335,726.299C1308.23,725.99 1308.12,725.697 1307.999,725.388C1307.964,725.275 1307.929,725.181 1307.886,725.06C1307.8,724.83 1307.714,724.588 1307.628,724.353C1306.941,722.443 1306.261,720.541 1305.589,718.631C1304.48,715.482 1303.394,712.338 1302.343,709.189L1302.327,709.174C1302.32,709.138 1302.308,709.103 1302.292,709.068C1302.284,709.06 1302.284,709.06 1302.284,709.053C1302.278,709.034 1302.272,709.015 1302.265,708.996ZM1532.214,816.916C1531.855,817.072 1531.499,817.237 1531.14,817.393C1531.499,817.229 1531.855,817.072 1532.214,816.916ZM1555.671,805.135C1555.44,805.272 1555.21,805.401 1554.976,805.529C1555.21,805.401 1555.44,805.264 1555.671,805.135Z" style="fill:white;fill-rule:nonzero;"/>
                        </g>
                        <g transform="matrix(0.2603,0,0,-0.2603,497.29596,262.252273)">
                            <path d="M0,265.055C1.094,248.039 0.391,231.258 -2.074,215.562C-5.981,193.789 -16.895,173.914 -32.078,156.625C-66.102,117.867 -121.559,92.055 -167.633,86.906L-167.633,86.898L-167.641,86.898C-161.969,40.086 -157.594,-6.82 -153.258,-53.758C-153.25,-53.867 -153.242,-53.976 -153.242,-54.094C-152.465,-66.047 -150.512,-78.5 -149.711,-90.836C-148.586,-108.172 -149.754,-125.266 -159.758,-140.414C-161.125,-142.508 -162.641,-144.492 -164.273,-146.344C-174.227,-157.664 -188.496,-164.195 -203.266,-165.141C-204.512,-165.219 -205.758,-165.258 -207.008,-165.258C-215.605,-165.258 -224.262,-163.359 -232.23,-159.398C-279.945,-135.359 -270.91,-44.594 -278.734,2.078C-292.383,116.555 -294.305,232.422 -311.156,346.352C-312.145,361.828 -306.578,376.43 -296.887,387.406C-287.777,397.711 -275.031,404.812 -260.676,406.383C-221.074,430.312 -173.285,429.633 -128.734,428.242C-46.41,422.867 -4.922,341.703 0,265.055Z" style="fill:white;fill-rule:nonzero;"/>
                        </g>
                        <g transform="matrix(0.260109,0.009989,-0.009989,0.260109,291.155756,-187.990523)">
                            <path d="M965.221,1333.328C965.127,1333.328 965.033,1333.328 964.94,1333.32L964.928,1333.34L964.897,1333.34L964.904,1333.328L964.877,1333.328C963.096,1333.304 961.33,1333.199 959.6,1333.011C958.647,1332.906 957.69,1332.769 956.752,1332.613L956.725,1332.613C956.393,1332.562 956.088,1332.504 955.752,1332.453C955.736,1332.453 955.729,1332.441 955.709,1332.441L955.686,1332.441C955.67,1332.433 955.658,1332.433 955.643,1332.433C955.572,1332.418 955.506,1332.398 955.436,1332.39C955.205,1332.34 954.963,1332.297 954.729,1332.246C954.705,1332.246 954.686,1332.238 954.67,1332.238C954.67,1332.238 954.662,1332.238 954.662,1332.226C954.635,1332.226 954.6,1332.218 954.565,1332.218C954.436,1332.195 954.299,1332.168 954.178,1332.125L954.127,1332.125C954.111,1332.117 954.092,1332.117 954.084,1332.117C954.076,1332.117 954.057,1332.105 954.049,1332.105C953.904,1332.062 953.776,1332.047 953.619,1332.019C953.611,1332.011 953.592,1332.011 953.584,1332.004C953.561,1332.004 953.533,1331.996 953.506,1331.988C953.385,1331.945 953.268,1331.933 953.147,1331.902C953.104,1331.902 953.069,1331.883 953.033,1331.867C952.861,1331.84 952.725,1331.797 952.576,1331.754C952.561,1331.761 952.533,1331.754 952.518,1331.754C952.381,1331.718 952.244,1331.676 952.111,1331.64L952.104,1331.64C952.061,1331.633 952.026,1331.625 951.994,1331.617C951.846,1331.574 951.709,1331.547 951.572,1331.504C951.561,1331.504 951.553,1331.496 951.545,1331.496C951.529,1331.488 951.51,1331.488 951.494,1331.48C951.401,1331.453 951.303,1331.426 951.209,1331.402C951.166,1331.394 951.123,1331.383 951.08,1331.375C951.072,1331.367 951.053,1331.359 951.037,1331.359C951.022,1331.351 951.002,1331.351 950.979,1331.34L950.967,1331.34C950.83,1331.304 950.709,1331.261 950.565,1331.23C950.557,1331.222 950.537,1331.211 950.522,1331.211C950.479,1331.195 950.436,1331.187 950.393,1331.176C950.295,1331.144 950.194,1331.117 950.1,1331.09C950.08,1331.082 950.065,1331.082 950.049,1331.074C950.029,1331.058 950.006,1331.066 949.979,1331.047C949.834,1331.015 949.694,1330.972 949.584,1330.918C949.557,1330.918 949.514,1330.91 949.486,1330.894C949.334,1330.851 949.178,1330.797 949.033,1330.738C949.022,1330.738 949.006,1330.746 948.998,1330.738C948.85,1330.687 948.705,1330.644 948.569,1330.593C948.541,1330.593 948.514,1330.574 948.49,1330.574C948.178,1330.48 947.877,1330.359 947.569,1330.246L947.561,1330.246C947.533,1330.238 947.518,1330.238 947.51,1330.238C947.397,1330.195 947.283,1330.152 947.182,1330.117C946.975,1330.043 946.768,1329.965 946.553,1329.879L946.545,1329.879C944.014,1328.922 941.576,1327.797 939.229,1326.488C939.108,1326.418 938.979,1326.347 938.858,1326.281C937.412,1325.461 936.002,1324.586 934.623,1323.656C934.358,1323.465 934.08,1323.269 933.815,1323.078C933.795,1323.07 933.787,1323.051 933.764,1323.043C933.756,1323.035 933.736,1323.027 933.729,1323.027C933.608,1322.922 933.486,1322.836 933.35,1322.75C929.545,1320.015 926.041,1316.828 922.873,1313.285C914.088,1303.496 907.811,1291.015 904.678,1277.933C903.998,1275.093 903.467,1272.234 903.096,1269.371C902.861,1267.648 902.69,1265.918 902.58,1264.195C902.373,1261.148 902.346,1258.101 902.51,1255.097C902.537,1254.695 902.561,1254.289 902.588,1253.894C904.154,1231.679 916.014,1211.445 941.319,1203.578C942.619,1203.179 943.936,1202.808 945.295,1202.472C946.69,1202.148 948.092,1201.855 949.514,1201.64C957.819,1200.332 966.115,1200.976 973.889,1203.25C985.783,1206.726 996.432,1214.008 1003.92,1223.957C1008.861,1227.187 1012.983,1231.023 1016.33,1235.312C1021.1,1241.414 1024.291,1248.422 1026.049,1255.812C1027.795,1263.242 1028.096,1271.058 1027.049,1278.734C1027.037,1278.836 1027.022,1278.941 1027.014,1279.054L1027.014,1279.105C1026.986,1279.258 1026.959,1279.414 1026.944,1279.57C1026.928,1279.664 1026.908,1279.758 1026.901,1279.851C1026.893,1279.906 1026.885,1279.965 1026.877,1280.015C1026.858,1280.129 1026.842,1280.242 1026.822,1280.359C1026.822,1280.371 1026.815,1280.379 1026.815,1280.386C1025.447,1288.89 1022.451,1297.195 1018.002,1304.562C1017.037,1306.164 1016.006,1307.715 1014.912,1309.218C1015.1,1309.351 1015.279,1309.488 1015.463,1309.625C1015.279,1309.496 1015.1,1309.359 1014.912,1309.23C1007.311,1319.644 996.545,1327.633 983.194,1330.816C982.42,1331.004 981.635,1331.176 980.834,1331.324C980.576,1331.394 980.311,1331.453 980.053,1331.511C980.045,1331.523 980.026,1331.523 980.018,1331.523C979.811,1331.609 979.611,1331.695 979.397,1331.773C979.604,1331.687 979.803,1331.609 980.002,1331.523C977.686,1332.09 975.404,1332.527 973.174,1332.832C970.506,1333.183 967.916,1333.347 965.35,1333.347C965.307,1333.34 965.264,1333.34 965.221,1333.328ZM1102.391,1807.453C1101.317,1807.453 1100.247,1807.426 1099.172,1807.367C1096.704,1807.238 1094.235,1806.934 1091.774,1806.461C1089.86,1806.09 1087.958,1805.617 1086.067,1805.031C1038.391,1791.926 1020.977,1692.762 1009.305,1649.684C1008.895,1647.926 1008.473,1646.16 1008.059,1644.406C1005.958,1635.625 1003.86,1626.84 1001.774,1618.059C990.903,1572.371 965.832,1479.779 955.668,1433.944C955.504,1432.998 955.363,1432.061 955.234,1431.131C947.679,1375.467 1002.058,1351.764 1039.343,1372.311L1039.351,1372.311C1039.515,1372.404 1039.679,1372.49 1039.843,1372.584C1039.851,1372.592 1039.871,1372.604 1039.879,1372.612C1040.195,1372.783 1040.515,1372.963 1040.824,1373.154C1040.851,1373.162 1040.879,1373.178 1040.902,1373.197C1041.039,1373.283 1041.195,1373.369 1041.332,1373.455C1041.367,1373.471 1041.394,1373.498 1041.418,1373.506C1041.539,1373.584 1041.66,1373.651 1041.781,1373.729C1041.824,1373.756 1041.859,1373.772 1041.902,1373.799C1042.031,1373.885 1042.16,1373.963 1042.289,1374.049C1042.34,1374.072 1042.383,1374.108 1042.433,1374.135C1042.547,1374.201 1042.66,1374.279 1042.769,1374.35C1042.84,1374.393 1042.898,1374.436 1042.968,1374.487C1043.047,1374.529 1043.133,1374.592 1043.211,1374.643C1043.277,1374.686 1043.347,1374.729 1043.418,1374.772C1043.519,1374.85 1043.621,1374.916 1043.726,1374.987C1043.812,1375.037 1043.89,1375.088 1043.968,1375.151C1044.019,1375.186 1044.07,1375.217 1044.121,1375.252C1044.258,1375.346 1044.398,1375.444 1044.535,1375.537C1044.57,1375.565 1044.613,1375.588 1044.648,1375.615C1044.734,1375.674 1044.828,1375.737 1044.914,1375.803C1044.922,1375.803 1044.922,1375.811 1044.929,1375.811C1045.113,1375.944 1045.293,1376.08 1045.48,1376.209C1045.488,1376.217 1045.508,1376.233 1045.523,1376.244C1048.547,1378.447 1051.402,1380.975 1054.047,1383.85L1054.054,1383.85L1054.054,1383.862C1060.965,1391.365 1066.449,1401.186 1069.609,1413.451C1092.676,1457.651 1121.528,1552.559 1133.114,1601.293C1137.485,1619.711 1141.461,1638.234 1145.293,1656.68C1147.161,1665.605 1148.977,1674.516 1150.825,1683.398C1150.868,1683.742 1150.922,1684.074 1150.954,1684.437C1152.876,1698.898 1156.711,1713.84 1158.692,1728.715C1160.731,1743.93 1160.809,1759.078 1154.864,1773.59C1148.879,1786.863 1138.149,1796.934 1125.485,1802.519C1122.251,1803.949 1118.876,1805.086 1115.434,1805.902C1114.934,1806.023 1114.434,1806.133 1113.934,1806.238C1112.54,1806.531 1111.129,1806.773 1109.7,1806.969C1107.411,1807.262 1105.106,1807.426 1102.79,1807.453L1102.391,1807.453Z" style="fill:white;fill-rule:nonzero;"/>
                        </g>
                        <g transform="matrix(0.2603,0,0,-0.2603,686.862337,274.03899)">
                            <path d="M0,325.562C3.84,308.5 4.672,291.125 3.949,273.766C3.453,261.898 2.219,250.031 0.75,238.266C-8.273,165.594 -13.144,92.352 -23.316,19.836C-24.969,7.977 -26.785,-3.867 -28.773,-15.703C-29.859,-21.859 -30.781,-28.07 -31.648,-34.281C-32.57,-40.836 -33.422,-47.406 -34.344,-53.969C-35.652,-63.289 -37.063,-72.57 -38.957,-81.773C-44.895,-106.359 -67.781,-122.953 -91.691,-124.492C-92.867,-124.57 -94.047,-124.609 -95.234,-124.609C-96.039,-124.609 -96.844,-124.594 -97.648,-124.555C-99.414,-124.492 -101.168,-124.328 -102.934,-124.078C-110.078,-123.086 -117.094,-120.633 -123.539,-116.539C-148.922,-102.109 -153.414,-72.953 -152.297,-46.109C-152.176,-43.203 -151.984,-40.328 -151.754,-37.5C-148.871,10.727 -142.809,58.758 -136.269,106.625C-133.816,124.398 -131.336,142.164 -128.848,159.945C-126.344,177.719 -123.84,195.492 -121.352,213.266C-121.328,213.43 -121.309,213.594 -121.293,213.75C-121.273,213.789 -121.285,213.836 -121.266,213.867C-121.231,214.031 -121.223,214.188 -121.199,214.344C-121.188,214.375 -121.188,214.414 -121.18,214.453C-121.156,214.586 -121.137,214.703 -121.121,214.82C-121.102,214.875 -121.094,214.938 -121.086,214.992C-121.059,215.125 -121.035,215.266 -121.016,215.406C-121.008,215.469 -120.984,215.547 -120.973,215.625C-120.957,215.695 -120.949,215.766 -120.93,215.844C-120.895,215.992 -120.879,216.133 -120.852,216.281C-120.836,216.328 -120.82,216.391 -120.82,216.445C-120.801,216.539 -120.785,216.633 -120.758,216.727C-120.75,216.789 -120.734,216.828 -120.723,216.891C-120.699,217.039 -120.656,217.172 -120.629,217.32C-120.621,217.391 -120.594,217.453 -120.586,217.508C-120.578,217.594 -120.562,217.672 -120.543,217.758C-120.508,217.891 -120.473,218.016 -120.441,218.148C-120.441,218.203 -120.422,218.242 -120.414,218.297C-120.379,218.422 -120.355,218.555 -120.312,218.68C-120.32,218.711 -120.312,218.734 -120.293,218.758C-120.035,219.82 -119.762,220.867 -119.426,221.906L-119.426,221.914C-119.426,221.914 -119.422,221.914 -119.418,221.918L-119.414,221.922L-119.414,221.941C-119.504,222.297 -119.559,222.66 -119.547,223.031C-119.539,223.039 -119.539,223.055 -119.547,223.062C-119.547,223.078 -119.547,223.102 -119.531,223.133C-119.539,223.156 -119.547,223.164 -119.547,223.18C-119.539,223.203 -119.531,223.219 -119.539,223.242C-119.539,223.258 -119.539,223.273 -119.531,223.289L-119.531,223.344C-119.523,223.367 -119.523,223.391 -119.523,223.414C-119.531,223.43 -119.531,223.438 -119.523,223.445C-119.516,223.484 -119.504,223.523 -119.504,223.562C-118.688,228.812 -117.258,236.695 -116.004,245.672C-113.66,262.25 -111.898,282.633 -115.613,297.445C-115.656,298.336 -115.742,299.242 -115.949,300.102C-116.004,300.305 -116.055,300.523 -116.113,300.734C-116.141,300.836 -116.164,300.93 -116.199,301.031C-116.219,301.094 -116.234,301.156 -116.242,301.211C-116.258,301.219 -116.262,301.219 -116.258,301.227C-116.258,301.227 -116.262,301.231 -116.262,301.234C-116.762,301.871 -117.254,302.473 -117.758,302.977C-117.766,302.984 -117.773,303 -117.781,303.008C-117.801,303.031 -117.844,303.062 -117.859,303.094C-117.879,303.102 -117.887,303.109 -117.895,303.117C-117.922,303.148 -117.945,303.172 -117.973,303.195C-118,303.219 -118.008,303.227 -118.023,303.242C-118.043,303.258 -118.059,303.281 -118.086,303.305C-118.117,303.336 -118.16,303.367 -118.203,303.406C-121.105,307.398 -126.141,310.492 -130.144,312.578C-130.203,312.633 -130.273,312.672 -130.34,312.703C-130.41,312.742 -130.481,312.789 -130.531,312.828C-132.477,314 -134.481,314.844 -136.519,315.375L-136.523,315.375C-136.527,315.375 -136.527,315.371 -136.531,315.367C-136.539,315.371 -136.551,315.371 -136.559,315.375C-137.125,315.352 -137.684,315.305 -138.238,315.211C-139.488,315.039 -140.734,314.727 -142,314.523C-142.129,314.516 -142.258,314.508 -142.379,314.508C-144.301,314.531 -146.176,314.562 -148.121,314.281C-150.281,313.969 -152.398,313.25 -154.394,312.398C-154.922,312.445 -155.453,312.43 -155.996,312.359C-157.09,312.227 -158.012,311.805 -158.941,311.336L-158.957,311.336C-158.961,311.336 -158.965,311.336 -158.969,311.332C-158.973,311.328 -158.981,311.324 -158.984,311.32C-158.988,311.316 -158.988,311.312 -158.992,311.312C-159.125,311.234 -159.262,311.172 -159.391,311.094C-159.414,311.07 -159.449,311.055 -159.484,311.031C-159.535,311.008 -159.578,310.969 -159.633,310.938C-159.734,310.883 -159.82,310.836 -159.898,310.781C-159.949,310.758 -160.019,310.719 -160.062,310.688C-160.199,310.602 -160.336,310.523 -160.473,310.43C-160.492,310.43 -160.516,310.414 -160.527,310.391C-160.68,310.297 -160.828,310.211 -160.992,310.117C-160.992,310.117 -161,310.117 -160.992,310.109C-162.797,308.953 -164.512,307.703 -166.121,306.367C-166.121,306.359 -166.129,306.359 -166.137,306.359C-166.277,306.227 -166.414,306.117 -166.559,305.984C-171.828,300.352 -176,292.727 -179.824,286.289C-182.578,280.906 -185.789,274.914 -188.742,269.906C-197.461,253.094 -204.035,236.383 -209.777,218.633C-211.129,214.344 -212.453,210.055 -213.746,205.734C-213.812,205.492 -213.891,205.258 -213.961,205.016C-214.012,204.82 -214.078,204.602 -214.133,204.406C-215.219,200.785 -216.266,197.156 -217.285,193.535C-217.387,192.676 -217.484,191.82 -217.555,190.961C-217.562,190.906 -217.562,190.867 -217.57,190.82C-217.57,190.797 -217.582,190.766 -217.57,190.734C-217.625,190.211 -217.668,189.672 -217.711,189.148C-217.711,189.109 -217.711,189.062 -217.719,189.023C-217.727,188.812 -217.746,188.602 -217.762,188.383C-217.812,187.516 -217.883,186.648 -217.926,185.758C-218.242,184.367 -218.57,182.977 -218.934,181.586C-219.922,177.758 -220.859,173.891 -221.723,170.016C-222.547,166.289 -223.383,162.562 -224.105,158.82C-224.828,155.117 -225.301,151.367 -226.008,147.664C-226.852,143.773 -227.848,139.93 -228.848,136.07C-229.891,131.984 -230.906,127.883 -231.981,123.805C-233.144,119.391 -234.269,114.914 -234.941,110.406C-235.527,106.422 -236.102,102.422 -236.664,98.438C-236.957,96.422 -237.238,94.406 -237.531,92.359C-239.527,78.18 -241.371,63.977 -243.332,49.773C-244.109,44.328 -244.918,38.883 -245.684,33.43C-246.141,30.164 -246.578,26.898 -246.992,23.609C-248.043,15.328 -248.953,7.008 -250.105,-1.266C-250.234,-2.117 -250.356,-2.969 -250.477,-3.836C-250.57,-4.406 -250.656,-4.992 -250.727,-5.578C-251.965,-14.281 -252.516,-23.055 -253.066,-31.836C-253.242,-34.367 -253.379,-36.898 -253.508,-39.422C-253.629,-39.656 -253.746,-39.906 -253.852,-40.133C-253.996,-40.438 -254.144,-40.742 -254.289,-41.047C-254.301,-41.062 -254.309,-41.086 -254.316,-41.109C-254.324,-41.117 -254.336,-41.137 -254.348,-41.16L-254.348,-41.195C-254.379,-41.711 -254.406,-42.227 -254.434,-42.75C-254.441,-42.859 -254.441,-42.961 -254.449,-43.078C-254.457,-43.117 -254.457,-43.164 -254.465,-43.195C-254.613,-45.547 -254.844,-47.906 -255.156,-50.219C-256.309,-58.508 -258.648,-66.352 -263.316,-72.359C-263.867,-72.961 -264.461,-73.617 -265.098,-74.25C-265.164,-74.312 -265.242,-74.391 -265.312,-74.461L-265.32,-74.469C-265.324,-74.473 -265.324,-74.473 -265.328,-74.473L-265.328,-74.477C-265.332,-74.481 -265.332,-74.484 -265.332,-74.492C-265.332,-74.516 -265.332,-74.531 -265.344,-74.539C-265.352,-74.578 -265.359,-74.625 -265.367,-74.68C-288.238,-100.172 -332.727,-98.922 -352.988,-70.469C-364.109,-55.953 -365.606,-37.5 -366.32,-19.883C-367.887,0.922 -367.906,21.68 -367.035,42.422C-364.738,97.523 -356.199,152.484 -353.602,207.539C-353.582,208.18 -353.559,208.82 -353.531,209.453C-352.215,241.773 -345.422,273.734 -344.125,306C-343.797,313.977 -343.812,321.984 -344.328,330.016C-344.891,345.016 -348.66,359.828 -348.047,374.836C-347.98,376.531 -347.852,378.227 -347.66,379.922C-335.957,450.172 -234.156,440.625 -234.391,369.789C-206.769,405.836 -163.469,428.75 -117.816,428.367C-58.461,431.383 -11.172,380.875 0,325.562Z" style="fill:white;fill-rule:nonzero;"/>
                        </g>
                        <g transform="matrix(0.2603,0,0,-0.2603,826.782245,189.151616)">
                            <path d="M0,-46.887C32.914,-90.805 -12.313,-138.141 -45.066,-166.289C-67.086,-182.199 -89.195,-227.559 -118.875,-221.215C-131.902,-219.512 -120.906,-203.719 -117.219,-197.398C-107.531,-187.051 -97.16,-177.309 -87.652,-166.738C-88.277,-166.488 -88.883,-166.211 -89.473,-165.906C-114.035,-150.758 -121.328,-119.629 -135.938,-96.289C-160.523,-39.711 -206.621,-35.531 -257.437,-14.188C-282.832,0.836 -317.586,11.676 -326.375,43.012C-328.977,50.098 -329.922,58.352 -328.953,66.258C-337.402,59.68 -346.43,55.242 -356.418,57.687C-365.234,86.379 -331.582,100.664 -315.621,118.16C-308.184,126.262 -298.875,136.305 -288.453,142.387C-283.891,146.34 -279.297,150.207 -275.195,154.215C-248.32,180.672 -197.211,171.391 -182.953,135.918C-178.82,124.613 -175.586,112.824 -172.957,100.926C-170.508,101.945 -167.988,102.754 -165.449,103.34C-135.09,110.488 -96.801,108.824 -77.012,81.262C-59.48,53.195 -73.809,20.211 -86.805,-7.594C-55.477,-8.754 -13.477,-28.766 0,-46.887Z" style="fill:white;fill-rule:nonzero;"/>
                        </g>
                        <g transform="matrix(0.2603,0,0,0.2603,270.418808,-174.739109)">
                            <path d="M1690.733,1682.346C1690.547,1682.095 1690.353,1681.839 1690.164,1681.588C1686.371,1676.553 1682.797,1671.322 1679.445,1665.904C1660.027,1634.85 1653.531,1595.623 1651.172,1558.901C1651.039,1556.772 1650.914,1554.662 1650.797,1552.549C1650.781,1551.803 1650.773,1551.049 1650.758,1550.299C1650.746,1549.955 1650.746,1549.6 1650.738,1549.248L1650.738,1549.154C1650.668,1541.787 1650.937,1534.444 1651.519,1527.147L1651.519,1527.123C1651.574,1526.424 1651.629,1525.717 1651.699,1525.026C1651.699,1524.963 1651.707,1524.908 1651.707,1524.854C1651.738,1524.522 1651.765,1524.201 1651.804,1523.885C1651.793,1523.861 1651.804,1523.838 1651.804,1523.815C1651.832,1523.514 1651.855,1523.225 1651.89,1522.932C1651.894,1522.815 1651.914,1522.697 1651.922,1522.58C1651.933,1522.377 1651.961,1522.178 1651.972,1521.975C1652.008,1521.725 1652.031,1521.479 1652.054,1521.236C1652.058,1521.123 1652.078,1521.014 1652.086,1520.908C1652.105,1520.701 1652.125,1520.506 1652.148,1520.307C1652.148,1520.295 1652.148,1520.276 1652.156,1520.26C1652.707,1515.072 1653.406,1509.908 1654.238,1504.776L1654.238,1504.768L1654.25,1504.705C1654.156,1501.916 1654.097,1499.194 1654.054,1496.537L1654.054,1496.166C1656.613,1468.151 1666.398,1437.529 1681.101,1409.631C1682.164,1407.85 1683.218,1406.041 1684.297,1404.256C1684.633,1403.701 1684.996,1403.154 1685.34,1402.604C1685.808,1401.893 1686.273,1401.194 1686.742,1400.494C1686.746,1400.49 1686.746,1400.483 1686.75,1400.475C1686.758,1400.463 1686.75,1400.455 1686.75,1400.447C1686.75,1400.447 1686.758,1400.444 1686.758,1400.436C1687.176,1399.822 1687.597,1399.213 1688.023,1398.611C1688.258,1398.272 1688.5,1397.94 1688.754,1397.604C1689.441,1396.654 1690.144,1395.717 1690.871,1394.791L1690.871,1394.779C1693.093,1391.932 1695.379,1389.139 1697.621,1386.299C1698.636,1385.022 1699.617,1383.721 1700.601,1382.416C1700.625,1382.393 1700.64,1382.361 1700.664,1382.338L1700.945,1381.963C1701.426,1381.319 1701.914,1380.67 1702.394,1380.018C1703.445,1378.611 1704.476,1377.197 1705.515,1375.791C1706.301,1374.74 1707.086,1373.674 1707.871,1372.623C1707.945,1372.529 1708.011,1372.436 1708.09,1372.342C1708.808,1371.381 1709.531,1370.436 1710.269,1369.494C1710.82,1368.861 1711.367,1368.229 1711.929,1367.608C1713.375,1365.994 1714.859,1364.408 1716.39,1362.869C1716.414,1362.858 1716.429,1362.838 1716.449,1362.819C1716.468,1362.803 1716.492,1362.783 1716.508,1362.76C1716.558,1362.709 1716.613,1362.654 1716.668,1362.604C1716.808,1362.455 1716.957,1362.303 1717.117,1362.154C1720.25,1359.299 1723.543,1356.627 1726.738,1353.819C1727.359,1353.272 1727.98,1352.721 1728.593,1352.17C1728.898,1351.897 1729.207,1351.623 1729.508,1351.342C1729.828,1351.061 1730.14,1350.772 1730.453,1350.486C1730.652,1350.299 1730.859,1350.111 1731.058,1349.936C1731.082,1349.908 1731.105,1349.885 1731.129,1349.865C1731.183,1349.815 1731.234,1349.764 1731.289,1349.717C1731.316,1349.694 1731.347,1349.666 1731.371,1349.643C1732.179,1348.885 1732.988,1348.127 1733.785,1347.358C1734.008,1347.154 1734.23,1346.947 1734.453,1346.736C1734.676,1346.533 1734.894,1346.322 1735.117,1346.111C1735.343,1345.897 1735.562,1345.682 1735.789,1345.463L1736.121,1345.143C1736.234,1345.037 1736.34,1344.924 1736.453,1344.819C1738.574,1342.846 1740.734,1340.951 1743.015,1339.162C1744.281,1338.287 1745.554,1337.444 1746.859,1336.639C1746.902,1336.615 1746.941,1336.584 1746.98,1336.561L1746.984,1336.561C1747.129,1336.467 1747.273,1336.377 1747.422,1336.287L1747.847,1336.026C1747.883,1336.006 1747.914,1335.986 1747.945,1335.967C1748.113,1335.861 1748.285,1335.756 1748.457,1335.654C1749.312,1335.131 1750.168,1334.635 1751.043,1334.139C1752.867,1333.182 1754.699,1332.24 1756.523,1331.283L1756.527,1331.283C1757.437,1330.807 1758.347,1330.326 1759.254,1329.842L1759.258,1329.842C1761.375,1328.705 1763.472,1327.541 1765.535,1326.307C1770.082,1323.596 1774.511,1320.713 1779.129,1318.104C1779.129,1318.104 1779.974,1317.627 1781.557,1316.822C1784.71,1315.184 1787.9,1313.639 1791.199,1312.303C1791.918,1312.029 1792.636,1311.755 1793.354,1311.481C1796.128,1310.353 1799.252,1309.163 1802.676,1307.983C1807.188,1306.327 1811.719,1304.74 1816.301,1303.295C1816.707,1303.385 1817.136,1303.42 1817.558,1303.385C1817.758,1303.381 1817.941,1303.346 1818.14,1303.307C1818.289,1303.301 1818.439,1303.297 1818.588,1303.293C1834.795,1299.325 1854.491,1296.982 1874.718,1300.431C1899.988,1304.739 1919.913,1307.975 1935.479,1312.317C1938.758,1313.105 1941.926,1314.115 1944.995,1315.319C1954.952,1318.892 1962.727,1323.297 1968.695,1329.366C1981.608,1339.628 1992.749,1352.653 2003.384,1364.809C2015.923,1379.11 2025.619,1395.215 2033.611,1412.422C2047.204,1434.158 2054.795,1458.646 2061.542,1483.203C2065.185,1501.565 2072.566,1519.494 2073.487,1538.256C2075.045,1547.448 2076.136,1556.93 2074.359,1566.151C2074.355,1566.174 2074.355,1566.201 2074.347,1566.225C2074.359,1566.471 2074.367,1566.713 2074.371,1566.955L2074.371,1566.983C2074.371,1567.092 2074.375,1567.209 2074.375,1567.326C2074.375,1567.358 2074.375,1567.393 2074.383,1567.412C2074.375,1567.522 2074.375,1567.635 2074.383,1567.744C2074.383,1567.768 2074.39,1567.791 2074.383,1567.807C2074.39,1568.158 2074.39,1568.506 2074.39,1568.85C2074.402,1568.889 2074.402,1568.928 2074.39,1568.967C2074.402,1569.057 2074.402,1569.151 2074.39,1569.236C2074.402,1569.291 2074.39,1569.354 2074.402,1569.412C2074.402,1569.494 2074.39,1569.576 2074.402,1569.654C2074.39,1569.725 2074.39,1569.787 2074.39,1569.858L2074.39,1570.096C2074.39,1570.174 2074.39,1570.26 2074.383,1570.338C2074.39,1570.401 2074.383,1570.455 2074.39,1570.51C2074.383,1570.658 2074.383,1570.811 2074.375,1570.944C2074.383,1570.99 2074.375,1571.037 2074.375,1571.084C2074.371,1571.194 2074.371,1571.299 2074.371,1571.404C2074.375,1571.455 2074.371,1571.494 2074.371,1571.541C2074.363,1571.643 2074.363,1571.756 2074.363,1571.854C2074.355,1571.901 2074.363,1571.951 2074.355,1571.998C2074.355,1572.123 2074.343,1572.24 2074.343,1572.358C2074.336,1572.381 2074.336,1572.404 2074.336,1572.428C2074.324,1572.901 2074.297,1573.361 2074.277,1573.826L2074.277,1573.865C2074.258,1574.018 2074.258,1574.174 2074.25,1574.322L2074.25,1574.338C2073.914,1579.92 2073.043,1585.455 2071.554,1590.838C2058.703,1642.49 2024.609,1687.408 1983.32,1720.111C1948.722,1749.873 1906.105,1766.908 1860.984,1769.807C1856.496,1770.1 1851.992,1770.248 1847.465,1770.256C1845.367,1770.358 1843.297,1770.408 1841.25,1770.408C1826.312,1770.408 1812.691,1767.748 1799.761,1763.088C1799.73,1763.08 1799.703,1763.069 1799.668,1763.053C1798.871,1762.834 1798.082,1762.592 1797.308,1762.342C1797.285,1762.334 1797.261,1762.326 1797.246,1762.315C1797.168,1762.295 1797.09,1762.268 1797.011,1762.236C1796.953,1762.225 1796.902,1762.197 1796.847,1762.19C1796.797,1762.166 1796.746,1762.147 1796.687,1762.139C1796.609,1762.1 1796.531,1762.072 1796.453,1762.049L1796.383,1762.026C1796.273,1761.986 1796.172,1761.955 1796.066,1761.916C1796.058,1761.916 1796.058,1761.916 1796.058,1761.908C1794.074,1761.205 1792.172,1760.401 1790.402,1759.463C1790.383,1759.463 1790.371,1759.455 1790.351,1759.44C1790.297,1759.408 1790.25,1759.385 1790.187,1759.354C1790.133,1759.322 1790.07,1759.291 1790,1759.26L1789.992,1759.252C1789.703,1759.092 1789.422,1758.932 1789.133,1758.756C1789.121,1758.752 1789.105,1758.744 1789.097,1758.74L1789.09,1758.74L1789.066,1758.729C1788.644,1758.533 1788.222,1758.342 1787.801,1758.151C1787.09,1757.971 1786.383,1757.795 1785.676,1757.619C1785.504,1757.576 1785.32,1757.529 1785.148,1757.49C1782.5,1756.154 1779.875,1754.779 1777.273,1753.354C1777.008,1753.205 1776.73,1753.065 1776.465,1752.924C1776.34,1752.85 1776.211,1752.791 1776.078,1752.721L1775.621,1752.483C1775.488,1752.404 1775.355,1752.334 1775.215,1752.256C1775.078,1752.178 1774.929,1752.111 1774.797,1752.033C1774.66,1751.963 1774.523,1751.885 1774.394,1751.815C1774.254,1751.744 1774.121,1751.666 1773.988,1751.596C1773.832,1751.51 1773.679,1751.432 1773.531,1751.35C1773.429,1751.295 1773.336,1751.24 1773.23,1751.186C1772.886,1750.998 1772.531,1750.799 1772.172,1750.604C1772.113,1750.572 1772.054,1750.545 1771.984,1750.506C1771.801,1750.408 1771.636,1750.303 1771.453,1750.205C1771.355,1750.158 1771.258,1750.1 1771.164,1750.053C1770.976,1749.944 1770.789,1749.842 1770.597,1749.733C1770.539,1749.701 1770.48,1749.662 1770.418,1749.639C1770.207,1749.518 1770.004,1749.397 1769.789,1749.276C1769.75,1749.26 1769.703,1749.236 1769.672,1749.213C1768.711,1748.67 1767.761,1748.135 1766.808,1747.588C1766.797,1747.58 1766.769,1747.565 1766.758,1747.553C1766.527,1747.42 1766.301,1747.287 1766.058,1747.154C1766.039,1747.135 1766.015,1747.123 1765.992,1747.115C1765.765,1746.979 1765.543,1746.854 1765.316,1746.721C1765.277,1746.697 1765.254,1746.682 1765.222,1746.666C1737.566,1730.514 1712.133,1709.904 1692.156,1684.201C1691.828,1683.764 1691.492,1683.334 1691.144,1682.893C1691.008,1682.717 1690.875,1682.533 1690.738,1682.354C1690.736,1682.351 1690.735,1682.349 1690.733,1682.346ZM1939.34,1459.322C1939.426,1459.47 1939.516,1459.622 1939.603,1459.776C1939.417,1459.445 1939.228,1459.117 1939.042,1458.793C1939.141,1458.966 1939.24,1459.146 1939.34,1459.322ZM1794.015,1456.904C1790.394,1460.916 1786.976,1465.065 1784.441,1469.869C1782.679,1473.217 1781.355,1476.565 1780.535,1480.26C1780.168,1481.916 1779.929,1483.6 1779.617,1485.272C1778.625,1489.072 1777.371,1492.822 1776.152,1496.553C1775.031,1499.983 1773.953,1503.334 1773.668,1506.967C1773.433,1509.901 1773.965,1512.807 1774.515,1515.694C1774.09,1517.932 1773.777,1520.182 1773.812,1522.479C1773.859,1525.529 1774.289,1528.565 1774.539,1531.604L1775.148,1539.201C1775.562,1544.416 1775.965,1549.627 1776.652,1554.815C1777.429,1560.674 1778.664,1566.467 1780.23,1572.17C1781.613,1577.194 1783.543,1582.061 1785.269,1586.975C1787.212,1592.506 1789.286,1597.902 1791.806,1603.201C1791.814,1603.219 1791.823,1603.238 1791.832,1603.256C1791.823,1603.238 1791.814,1603.219 1791.806,1603.201C1791.506,1602.571 1791.206,1601.937 1790.902,1601.303C1792.558,1604.834 1794.144,1608.584 1796.316,1611.842C1798.836,1615.627 1801.582,1619.131 1804.883,1622.276C1807.035,1624.326 1809.277,1626.272 1811.461,1628.287C1813.277,1629.963 1815.011,1631.729 1816.926,1633.295C1822.23,1637.635 1828.476,1640.381 1834.836,1642.787C1837.097,1643.643 1839.371,1644.569 1841.703,1645.221C1845.527,1646.295 1849.238,1646.994 1853.199,1647.319C1854.75,1647.447 1856.297,1647.51 1857.843,1647.51C1863.23,1647.51 1868.583,1646.748 1873.781,1645.289C1873.834,1645.274 1873.887,1645.259 1873.94,1645.244C1874.004,1645.226 1874.068,1645.208 1874.132,1645.189C1874.154,1645.183 1874.176,1645.176 1874.198,1645.17C1874.203,1645.168 1874.207,1645.167 1874.211,1645.166C1874.207,1645.167 1874.202,1645.168 1874.198,1645.17C1874.185,1645.174 1874.171,1645.18 1874.156,1645.186L1874.234,1645.162C1874.25,1645.154 1874.265,1645.151 1874.277,1645.147L1874.277,1645.151C1874.281,1645.147 1874.285,1645.147 1874.289,1645.143C1881.406,1642.959 1887.953,1639.346 1894.672,1636.186C1900.015,1633.67 1905.121,1630.529 1910.027,1627.264C1912.074,1625.904 1913.941,1624.252 1915.879,1622.748C1917.91,1621.174 1919.984,1619.658 1922.023,1618.096C1927.039,1614.256 1931.504,1609.854 1935.703,1605.151C1937.386,1603.26 1938.945,1601.256 1940.422,1599.205C1942.269,1596.643 1944.136,1594.026 1945.715,1591.283C1947.379,1588.389 1948.988,1585.455 1950.34,1582.401C1951.715,1579.287 1952.879,1576.065 1953.965,1572.842C1955.867,1567.205 1957.601,1561.526 1958.765,1555.686C1959.902,1549.975 1960.148,1544.092 1960.472,1538.291C1960.676,1534.717 1960.711,1531.147 1960.476,1527.572C1960.222,1523.713 1959.258,1519.983 1958.281,1516.264C1957.226,1511.99 1956.437,1507.662 1955.695,1503.322C1955.136,1500.069 1954.457,1496.83 1953.422,1493.694C1952.547,1491.049 1951.558,1488.471 1950.515,1485.897C1948.847,1481.795 1947.441,1477.596 1945.98,1473.424C1944.25,1468.49 1941.902,1463.854 1939.34,1459.322C1938.328,1457.565 1937.293,1455.822 1936.215,1454.104C1933.176,1449.256 1929.996,1444.611 1926.226,1440.291C1921.414,1434.768 1916.398,1428.744 1909.898,1425.119C1906.906,1423.447 1903.765,1421.873 1900.59,1420.553C1898.429,1419.651 1896.207,1418.908 1894.035,1418.037C1891.234,1416.912 1888.433,1415.725 1885.519,1414.928C1882.418,1414.076 1879.402,1413.557 1876.258,1413.225C1873.269,1413.006 1870.437,1412.994 1867.386,1413.19C1864.89,1413.35 1862.383,1413.854 1859.937,1414.33C1855.676,1415.162 1851.523,1416.506 1847.504,1418.143C1843.566,1419.748 1839.531,1421.26 1835.867,1423.451C1832.656,1425.373 1829.59,1427.506 1826.465,1429.557C1823.926,1431.088 1821.246,1432.322 1818.652,1433.76C1814.988,1435.799 1811.41,1438.131 1808.308,1440.967C1803.57,1445.303 1799.777,1450.44 1795.547,1455.229C1795.035,1455.787 1794.527,1456.345 1794.015,1456.904ZM1876.258,1413.225C1876.609,1413.251 1876.963,1413.277 1877.32,1413.308L1875.197,1413.119C1875.552,1413.152 1875.905,1413.188 1876.258,1413.225Z" style="fill:white;"/>
                        </g>
                    </g>
                    <g transform="matrix(1.184467,-0.050705,0.050705,1.184467,226.379356,-246.192402)">
                        <g transform="matrix(0.238394,-0.027722,-0.027722,-0.238394,230.006926,468.605577)">
                            <path d="M0,-125.541C-2.043,-123.409 -3.643,-120.813 -4.599,-117.848C-7.857,-107.043 -4.85,-95.254 -2.879,-84.181C-0.093,-69.509 2.66,-54.821 4.885,-40.04C6.127,-32.692 7.188,-25.305 8.544,-17.944C7.656,-14.997 8.14,-11.666 9.636,-8.849C9.911,-8.345 10.214,-7.852 10.538,-7.389C10.646,-7.248 10.74,-7.115 10.834,-6.981C11.169,-5.518 11.563,-4.054 11.958,-2.596C12.194,-1.78 12.521,-1.01 12.912,-0.308C14.067,1.843 15.834,3.535 17.802,4.467C24.487,14.317 35.504,15.828 43.684,11.376C43.79,11.325 43.907,11.258 44.016,11.21C44.052,11.185 44.081,11.174 44.108,11.151C44.203,11.096 44.291,11.04 44.39,10.988C44.402,10.965 44.42,10.956 44.428,10.949C44.533,10.898 44.647,10.827 44.75,10.772C44.776,10.743 44.816,10.722 44.839,10.702C44.927,10.647 45.005,10.586 45.107,10.538C45.122,10.525 45.138,10.506 45.153,10.493C45.263,10.425 45.366,10.356 45.465,10.298C45.48,10.292 45.499,10.276 45.507,10.263C45.521,10.25 45.537,10.237 45.548,10.227C45.636,10.171 45.724,10.115 45.796,10.048C45.826,10.029 45.844,10.02 45.884,9.992C45.974,9.922 46.07,9.853 46.181,9.785C46.19,9.757 46.223,9.735 46.254,9.703C46.334,9.653 46.412,9.6 46.494,9.53C46.502,9.523 46.516,9.518 46.528,9.508C46.535,9.502 46.553,9.493 46.558,9.483C46.645,9.395 46.749,9.319 46.846,9.243C46.861,9.23 46.873,9.214 46.884,9.204C46.898,9.198 46.91,9.189 46.914,9.171C47,9.105 47.089,9.042 47.176,8.955C47.184,8.948 47.202,8.939 47.228,8.924C47.315,8.836 47.424,8.744 47.515,8.653C47.526,8.65 47.533,8.644 47.547,8.638C47.652,8.548 47.755,8.441 47.849,8.354C49.956,6.344 51.677,3.82 52.805,0.837L52.808,0.848L52.819,0.845L52.812,0.838C52.867,0.72 52.911,0.604 52.952,0.478L52.957,0.468C53.531,-1.091 53.922,-2.752 54.138,-4.556C56.982,-21.05 51.412,-38.051 47.985,-54.197C47.989,-54.207 47.984,-54.235 47.978,-54.243C47.971,-54.251 47.973,-54.271 47.967,-54.279C47.971,-54.289 47.971,-54.289 47.965,-54.296C47.964,-54.328 47.951,-54.343 47.952,-54.364C47.919,-54.517 47.891,-54.648 47.885,-54.792C47.254,-56.793 46.695,-59.005 46.179,-61.44L46.203,-61.442C47.195,-60.94 48.275,-60.592 49.39,-60.409C50.422,-60.24 51.483,-60.225 52.551,-60.379C57.462,-60.992 61.826,-60.296 65.738,-58.626C66.91,-58.117 68.032,-57.539 69.106,-56.887C69.666,-56.549 70.218,-56.191 70.754,-55.813C76.615,-51.698 81.291,-45.329 85.138,-38.312L85.145,-38.304C85.148,-38.294 85.156,-38.276 85.169,-38.26L85.176,-38.253C85.201,-38.178 85.245,-38.111 85.286,-38.056C88.955,-31.301 91.856,-23.975 94.312,-17.487C94.705,-16.443 95.102,-15.408 95.484,-14.412C97.22,-10.122 98.569,-5.754 99.659,-1.333L99.648,-1.33L99.654,-1.322L99.657,-1.312C103.9,15.836 104.29,33.743 108.918,50.893C109.429,54.097 110.507,57.214 111.977,59.963C115.238,66.01 120.466,70.256 126.018,69.809C129.248,69.534 132.589,67.656 135.7,63.603C140.065,56.129 140.031,46.818 140.829,38.215C142.025,20.58 142.436,3.764 136.627,-12.987C132.305,-23.726 127.612,-35.456 121.727,-46.326C121.632,-46.498 121.544,-46.662 121.443,-46.835C120.493,-48.57 119.507,-50.288 118.507,-51.961C118.427,-52.094 118.36,-52.218 118.276,-52.347C118.254,-52.38 118.239,-52.406 118.214,-52.443C116.285,-55.63 114.221,-58.695 112.009,-61.615L111.999,-61.619C111.999,-61.619 111.993,-61.633 111.986,-61.627C108.345,-66.457 104.267,-70.828 99.691,-74.53C99.668,-74.549 99.648,-74.565 99.625,-74.577C99.478,-74.704 99.336,-74.817 99.184,-74.926C99.141,-74.961 99.116,-74.998 99.069,-75.023C98.934,-75.128 98.79,-75.244 98.655,-75.35C98.608,-75.381 98.555,-75.413 98.497,-75.474C98.371,-75.568 98.247,-75.668 98.108,-75.77C98.045,-75.814 97.988,-75.843 97.953,-75.884C97.526,-76.194 97.091,-76.522 96.653,-76.823C96.581,-76.877 96.494,-76.933 96.415,-76.995C96.317,-77.073 96.202,-77.131 96.097,-77.216C96.001,-77.283 95.901,-77.34 95.815,-77.41C95.702,-77.482 95.616,-77.538 95.517,-77.609C95.401,-77.691 95.301,-77.755 95.205,-77.822C95.099,-77.893 95.006,-77.957 94.919,-78.012C94.789,-78.089 94.666,-78.165 94.553,-78.244C94.467,-78.3 94.397,-78.351 94.3,-78.397C94.108,-78.531 93.908,-78.659 93.698,-78.784C90.163,-80.977 86.345,-82.772 82.228,-84.105L82.225,-84.116C89.438,-89.063 96.066,-96.564 99.517,-101.107C99.649,-101.278 99.781,-101.481 99.901,-101.674C99.919,-101.684 99.927,-101.697 99.939,-101.72C101.86,-104.511 103.574,-107.392 105.155,-110.36C105.16,-110.371 105.167,-110.384 105.169,-110.397C105.274,-110.578 105.373,-110.766 105.475,-110.957C105.508,-111.024 105.527,-111.086 105.569,-111.167C105.636,-111.27 105.702,-111.39 105.753,-111.512C105.802,-111.592 105.855,-111.689 105.89,-111.777C105.903,-111.814 105.934,-111.854 105.951,-111.888C107.558,-115.039 109.029,-118.251 110.441,-121.515L110.449,-121.522C110.446,-121.532 110.446,-121.532 110.461,-121.538C110.572,-121.802 110.688,-122.069 110.805,-122.35C111.845,-124.76 112.856,-127.196 113.873,-129.618C119.081,-143.122 126.553,-156.232 128.246,-170.975C128.948,-175.992 127.875,-180.828 125.701,-184.849C125.685,-184.867 125.682,-184.878 125.676,-184.886C123.626,-188.649 120.584,-191.69 117.092,-193.53C115.886,-194.16 114.621,-194.642 113.325,-194.961C109.885,-195.797 106.222,-195.459 102.734,-193.564C102.697,-193.539 102.679,-193.53 102.66,-193.514C102.452,-193.408 102.239,-193.278 102.038,-193.158C101.968,-193.118 101.902,-193.075 101.828,-193.031C100.503,-192.192 99.214,-191.145 97.957,-189.794C81.411,-167.091 87.187,-128.6 62.434,-111.897C61.266,-111.102 60.034,-110.367 58.713,-109.675C52.406,-106.757 45.785,-104.069 38.932,-102.505C37.651,-107.773 36.098,-112.738 34.116,-117.052C34.089,-117.106 34.062,-117.168 34.033,-117.24C34,-117.31 33.964,-117.389 33.925,-117.466C33.867,-117.579 33.821,-117.701 33.743,-117.815L33.74,-117.826L33.744,-117.836C33.736,-117.869 33.718,-117.898 33.706,-117.92C33.671,-117.975 33.662,-118.032 33.628,-118.087C33.552,-118.229 33.48,-118.375 33.415,-118.527C33.402,-118.549 33.39,-118.564 33.377,-118.585C33.326,-118.684 33.287,-118.768 33.237,-118.842C33.054,-119.223 32.853,-119.596 32.659,-119.967C32.646,-119.982 32.637,-120.001 32.621,-120.02C30.09,-124.611 26.919,-128.215 22.889,-130.251C22.252,-130.55 21.6,-130.783 20.928,-130.994C19.244,-131.533 17.501,-131.821 15.797,-131.89C15.79,-131.884 15.784,-131.891 15.769,-131.885C11.978,-132.04 8.237,-131.109 4.949,-129.314C4.667,-129.152 4.396,-128.999 4.107,-128.843C3.185,-128.276 2.306,-127.637 1.481,-126.933C0.967,-126.495 0.469,-126.031 0,-125.541Z" style="fill:white;fill-rule:nonzero;"/>
                        </g>
                        <g transform="matrix(0.24,0,0,-0.24,277.720621,454.075954)">
                            <path d="M0,-187.114C-3.665,-183.353 -6.236,-178.038 -8.153,-173.527C-13.66,-159.372 -9.417,-144.071 -9.067,-129.4C-6.264,-94.668 -8.623,-59.206 -2.655,-24.849C0.164,-13.677 6.996,-4.05 14.511,4.374C24.325,0.297 28.883,-13.58 31.568,-23.532C34.737,-38.536 31.475,-53.956 31.328,-69.117C30.136,-98.803 29.338,-128.496 26.793,-158.103C25.356,-171.095 18.786,-185.001 7.003,-191.487C4.901,-190.906 3.032,-189.817 1.371,-188.4C0.898,-187.997 0.445,-187.565 0,-187.114Z" style="fill:white;fill-rule:nonzero;"/>
                        </g>
                        <g transform="matrix(0.239546,0.014753,0.014753,-0.239546,297.092208,453.620501)">
                            <path d="M0,-192.172C-1.529,-190.609 -2.806,-188.787 -3.783,-186.789C-12.951,-157.942 -5.625,-123.079 -2.403,-94.509C1.387,-72.972 1.314,-51.437 9.594,-31.19C47.304,16.626 113.637,-64.874 119.408,-104.217C126.934,-148.802 89.15,-190.098 49.543,-204.713C38.645,-208.703 17.168,-208.799 11.087,-197.886C7.416,-197.352 4.085,-195.767 1.363,-193.445C0.891,-193.042 0.437,-192.617 0,-192.172ZM41.36,-56.674C41.746,-76.338 37.617,-92.851 36.944,-112.046C36.108,-126.011 35.536,-139.987 35.005,-153.966C34.8,-159.44 34.588,-164.92 34.312,-170.392C57.752,-161.412 83.088,-139.902 82.523,-112.961C78.652,-97.474 70.242,-81.978 58.7,-70.123C56.915,-68.29 55.056,-66.543 53.129,-64.899C49.447,-61.758 45.511,-58.984 41.36,-56.674Z" style="fill:white;fill-rule:nonzero;"/>
                        </g>
                        <g transform="matrix(0.24,0,0,-0.24,318.055021,468.21409)">
                            <path d="M0,-187.708C-3.06,-184.567 -5.526,-180.623 -7.244,-175.719C-7.311,-174.606 -7.85,-173.142 -6.648,-172.47C9.575,-159.077 30.737,-160.831 50.306,-158.544C78.579,-155.449 116.617,-139.035 92.307,-106.116C81.29,-87.131 60.775,-74.989 53.26,-53.712C37.578,-18.157 79.4,19.215 113.891,7.375C124.302,4.02 131.12,-4.549 135.656,-14.009C126.905,-22.939 89.671,-24.725 88.033,-37.967C91.252,-47.605 98.371,-54.765 105.514,-61.966C110.814,-67.303 116.133,-72.656 119.888,-79.052C129.487,-93.504 138.353,-109.733 138.207,-127.545C137.339,-156.743 113.725,-180.266 86.869,-188.566C63.764,-194.793 22.345,-206.923 1.989,-189.567C1.3,-188.978 0.639,-188.363 0,-187.708Z" style="fill:white;fill-rule:nonzero;"/>
                        </g>
                    </g>
                </g>
            </g>
        </g>
    </g>
</svg>
